<?xml version="1.0" encoding="UTF-8" standalone="no"?>
<svg
   version="1.1"
   id="mdi-tools"
   width="32"
   height="32"
   viewBox="0 0 24 24"
   sodipodi:docname="tools_icon_137091.svg"
   inkscape:version="1.2.1 (9c6d41e410, 2022-07-14)"
   xmlns:inkscape="http://www.inkscape.org/namespaces/inkscape"
   xmlns:sodipodi="http://sodipodi.sourceforge.net/DTD/sodipodi-0.dtd"
   xmlns="http://www.w3.org/2000/svg"
   xmlns:svg="http://www.w3.org/2000/svg">
  
  <ellipse
     style="fill:#ffffff;fill-opacity:1;stroke:#ffffff;stroke-width:1.10349;stroke-opacity:1"
     id="path4188"
     cx="11.999999"
     cy="12.000001"
     rx="11.448254"
     ry="11.448256" />
  <g
     id="g4505"
     transform="matrix(0.85098892,0,0,0.8505659,1.7814136,1.7960649)">
    <path
       style="fill:#134094;fill-opacity:1;stroke:#134094;stroke-width:0.023369;stroke-opacity:1"
       d="M 19.513145,21.932028 C 19.133604,21.906978 19.362474,22.11103 16.319427,19.084623 14.82417,17.597544 12.119435,14.902447 10.308903,13.095518 L 7.0170277,9.8101935 6.7451252,9.8637628 C 6.3368941,9.9441913 5.9431931,9.9678039 5.5919526,9.9329249 5.441011,9.917936 4.9849358,9.8281944 4.895813,9.7959461 4.8765336,9.78897 4.7661149,9.7490624 4.6504382,9.7072629 3.3154758,9.2248763 2.332774,8.0422511 2.0781794,6.6116971 2.0195664,6.2823536 2.0152767,5.6991337 2.0692039,5.3914016 2.110432,5.1561364 2.1991329,4.787717 2.2243842,4.7468595 2.2317899,4.7348768 2.8043426,5.2914936 3.4967236,5.9837854 L 4.7555981,7.242498 6.0058624,5.9923976 C 6.6935077,5.3048422 7.2534885,4.7353972 7.250264,4.726964 7.2470393,4.7185309 6.6896787,4.1531003 6.0116845,3.4704519 5.3336904,2.7878034 4.7789679,2.2202218 4.7789679,2.2091594 c 0,-0.016577 0.1650384,-0.066986 0.4323271,-0.1320486 0.052127,-0.012689 0.1526872,-0.027701 0.3271665,-0.04884 0.1434509,-0.01738 0.7516511,-0.017425 0.9113924,-6.71e-5 0.102194,0.011105 0.2076318,0.028494 0.4323272,0.071303 0.1474296,0.028088 0.4301894,0.1221257 0.654333,0.2176127 1.1324355,0.4824264 1.9678215,1.4371749 2.3030842,2.6321557 0.032951,0.1174484 0.065284,0.2551593 0.071852,0.3060246 0.00657,0.050865 0.016708,0.1001963 0.022535,0.1096248 0.015481,0.02505 0.015299,1.0979103 -2.103e-4,1.1658127 -0.00723,0.031675 -0.0183,0.083882 -0.024601,0.116014 -0.0063,0.032132 -0.027147,0.121519 -0.046324,0.1986368 l -0.034866,0.1402142 3.452148,3.4586188 c 7.814545,7.829189 8.522444,8.546329 8.600841,8.71311 0.116456,0.247749 0.117653,0.563554 0.003,0.800324 -0.09253,0.191145 -1.537082,1.664962 -1.810018,1.84669 -0.08899,0.05925 -0.350535,0.16751 -0.350535,0.145093 0,-0.0019 -0.09464,-0.0098 -0.210322,-0.01741 z"
       id="path2262" />
    <path
       style="fill:#ae0a0d;fill-opacity:1;stroke:#ae0a0d;stroke-width:0.023369;stroke-opacity:1"
       d="M 14.839333,9.1489725 13.858037,8.167468 14.938756,7.0865618 16.019474,6.0056558 V 5.0067498 4.007844 l 1.990222,-0.9951654 1.990222,-0.9951654 0.991284,0.9912844 0.991285,0.9912843 -0.995166,1.9902221 -0.995165,1.9902218 h -0.999094 -0.999095 l -1.074785,1.0749757 c -0.591132,0.5912366 -1.080133,1.0749755 -1.086669,1.0749755 -0.0065,0 -0.453467,-0.441677 -0.99318,-0.9815045 z"
       id="path2992" />
    <path
       style="fill:#ae0a0d;fill-opacity:1;stroke:#ae0a0d;stroke-width:0.023369;stroke-opacity:1"
       d="M 4.1363194,21.947103 C 3.902706,21.8698 3.8316525,21.809351 3.0099622,20.988848 2.2524759,20.232457 2.1812992,20.154537 2.1102543,20.003895 c -0.072695,-0.154141 -0.077148,-0.178421 -0.077148,-0.420643 0,-0.43524 -0.031492,-0.391135 1.0734244,-1.50338 0.514972,-0.518388 1.7732131,-1.771985 2.7960914,-2.785772 l 1.8597787,-1.843249 1.3943596,1.379778 c 0.7668977,0.758879 1.3943596,1.392174 1.3943596,1.407323 0,0.01515 -1.2540409,1.279702 -2.7867576,2.810116 -2.6514613,2.647479 -2.7941321,2.785822 -2.9386563,2.849508 -0.1259591,0.05551 -0.1898105,0.06809 -0.3739045,0.0737 -0.1393515,0.0042 -0.2568077,-0.0048 -0.315482,-0.02417 z"
       id="path3408" />
  </g>
</svg>
